<svg xmlns="http://www.w3.org/2000/svg" xmlns:xlink="http://www.w3.org/1999/xlink" width="500" zoomAndPan="magnify" viewBox="0 0 375 374.999991" height="500" preserveAspectRatio="xMidYMid meet" version="1.0"><defs><g/><clipPath id="f215332ac2"><path d="M 73.421875 216 L 80 216 L 80 222.390625 L 73.421875 222.390625 Z M 73.421875 216 " clip-rule="nonzero"/></clipPath><clipPath id="b612463e54"><path d="M 80 184.140625 L 190 184.140625 L 190 221 L 80 221 Z M 80 184.140625 " clip-rule="nonzero"/></clipPath><clipPath id="49908d8819"><path d="M 186 162 L 289.511719 162 L 289.511719 178.371094 L 186 178.371094 Z M 186 162 " clip-rule="nonzero"/></clipPath><clipPath id="c5280c03c8"><path d="M 290.433594 158.664062 L 300.933594 158.664062 L 300.933594 168.414062 L 290.433594 168.414062 Z M 290.433594 158.664062 " clip-rule="nonzero"/></clipPath><clipPath id="d465e6a972"><path d="M 190 193 L 202 193 L 202 196 L 190 196 Z M 190 193 " clip-rule="nonzero"/></clipPath><clipPath id="449ac570d6"><path d="M 194.980469 193.054688 L 210.859375 197.546875 L 206.363281 213.425781 L 190.488281 208.929688 Z M 194.980469 193.054688 " clip-rule="nonzero"/></clipPath><clipPath id="51b1d25640"><path d="M 181.222656 168.464844 L 216.582031 178.472656 L 206.78125 213.113281 L 171.417969 203.105469 Z M 181.222656 168.464844 " clip-rule="nonzero"/></clipPath><clipPath id="f22254de38"><path d="M 193 194 L 200 194 L 200 199 L 193 199 Z M 193 194 " clip-rule="nonzero"/></clipPath><clipPath id="c141d2dceb"><path d="M 194.980469 193.054688 L 210.859375 197.546875 L 206.363281 213.425781 L 190.488281 208.929688 Z M 194.980469 193.054688 " clip-rule="nonzero"/></clipPath><clipPath id="86fbef1c77"><path d="M 181.222656 168.464844 L 216.582031 178.472656 L 206.78125 213.113281 L 171.417969 203.105469 Z M 181.222656 168.464844 " clip-rule="nonzero"/></clipPath><clipPath id="868639836a"><path d="M 197 198 L 207 198 L 207 213 L 197 213 Z M 197 198 " clip-rule="nonzero"/></clipPath><clipPath id="2d87a270b2"><path d="M 194.980469 193.054688 L 210.859375 197.546875 L 206.363281 213.425781 L 190.488281 208.929688 Z M 194.980469 193.054688 " clip-rule="nonzero"/></clipPath><clipPath id="f7a8abd331"><path d="M 181.222656 168.464844 L 216.582031 178.472656 L 206.78125 213.113281 L 171.417969 203.105469 Z M 181.222656 168.464844 " clip-rule="nonzero"/></clipPath><clipPath id="2e91f2f650"><path d="M 172.949219 165.027344 L 203.699219 165.027344 L 203.699219 195.777344 L 172.949219 195.777344 Z M 172.949219 165.027344 " clip-rule="nonzero"/></clipPath><clipPath id="145772a5ea"><path d="M 174.917969 166.996094 L 201.601562 166.996094 L 201.601562 193.679688 L 174.917969 193.679688 Z M 174.917969 166.996094 " clip-rule="nonzero"/></clipPath><clipPath id="db5e459bf1"><path d="M 188.257812 166.996094 C 180.890625 166.996094 174.917969 172.96875 174.917969 180.335938 C 174.917969 187.707031 180.890625 193.679688 188.257812 193.679688 C 195.628906 193.679688 201.601562 187.707031 201.601562 180.335938 C 201.601562 172.96875 195.628906 166.996094 188.257812 166.996094 Z M 188.257812 166.996094 " clip-rule="nonzero"/></clipPath><clipPath id="73f16e2c9b"><path d="M 184 171.105469 L 192 171.105469 L 192 178 L 184 178 Z M 184 171.105469 " clip-rule="nonzero"/></clipPath><clipPath id="d0384460c8"><path d="M 178.4375 177 L 186 177 L 186 181 L 178.4375 181 Z M 178.4375 177 " clip-rule="nonzero"/></clipPath><clipPath id="21e26c361b"><path d="M 181 177 L 196 177 L 196 189.488281 L 181 189.488281 Z M 181 177 " clip-rule="nonzero"/></clipPath><clipPath id="b7cbd7f0d6"><path d="M 187.46875 171.105469 L 189.117188 171.105469 L 189.117188 174.496094 L 187.46875 174.496094 Z M 187.46875 171.105469 " clip-rule="nonzero"/></clipPath><clipPath id="4936d1e9e4"><path d="M 188.292969 171.105469 L 189.117188 174.492188 L 187.46875 174.492188 Z M 188.292969 171.105469 " clip-rule="nonzero"/></clipPath></defs><g clip-path="url(#f215332ac2)"><path fill="#8d99ae" d="M 73.210938 219.417969 C 73.210938 219.023438 73.285156 218.644531 73.4375 218.28125 C 73.589844 217.914062 73.804688 217.59375 74.082031 217.316406 C 74.359375 217.035156 74.683594 216.820312 75.046875 216.671875 C 75.410156 216.519531 75.789062 216.445312 76.183594 216.445312 C 76.578125 216.445312 76.957031 216.519531 77.320312 216.671875 C 77.683594 216.820312 78.007812 217.035156 78.285156 217.316406 C 78.5625 217.59375 78.777344 217.914062 78.929688 218.28125 C 79.078125 218.644531 79.15625 219.023438 79.15625 219.417969 C 79.15625 219.8125 79.078125 220.191406 78.929688 220.554688 C 78.777344 220.917969 78.5625 221.238281 78.285156 221.519531 C 78.007812 221.796875 77.683594 222.011719 77.320312 222.164062 C 76.957031 222.3125 76.578125 222.390625 76.183594 222.390625 C 75.789062 222.390625 75.410156 222.3125 75.046875 222.164062 C 74.683594 222.011719 74.359375 221.796875 74.082031 221.519531 C 73.804688 221.238281 73.589844 220.917969 73.4375 220.554688 C 73.285156 220.191406 73.210938 219.8125 73.210938 219.417969 Z M 73.210938 219.417969 " fill-opacity="1" fill-rule="nonzero"/></g><g clip-path="url(#b612463e54)"><path fill="#8d99ae" d="M 188.664062 159.371094 C 189.320312 159.371094 189.851562 159.902344 189.851562 160.554688 L 189.851562 163.71875 C 189.851562 164.371094 189.320312 164.902344 188.664062 164.902344 C 188.011719 164.902344 187.480469 164.371094 187.480469 163.71875 L 187.480469 160.554688 C 187.480469 159.902344 188.011719 159.371094 188.664062 159.371094 Z M 188.664062 165.691406 C 189.320312 165.691406 189.851562 166.222656 189.851562 166.878906 L 189.851562 170.039062 C 189.851562 170.695312 189.320312 171.226562 188.664062 171.226562 C 188.011719 171.226562 187.480469 170.695312 187.480469 170.039062 L 187.480469 166.878906 C 187.480469 166.222656 188.011719 165.691406 188.664062 165.691406 Z M 188.664062 172.015625 C 189.320312 172.015625 189.851562 172.546875 189.851562 173.203125 L 189.851562 176.363281 C 189.851562 177.015625 189.320312 177.546875 188.664062 177.546875 C 188.011719 177.546875 187.480469 177.015625 187.480469 176.363281 L 187.480469 173.203125 C 187.480469 172.546875 188.011719 172.015625 188.664062 172.015625 Z M 188.664062 178.339844 C 189.320312 178.339844 189.851562 178.871094 189.851562 179.523438 L 189.851562 182.683594 C 189.851562 183.339844 189.320312 183.871094 188.664062 183.871094 C 188.011719 183.871094 187.480469 183.339844 187.480469 182.683594 L 187.480469 179.523438 C 187.480469 178.871094 188.011719 178.339844 188.664062 178.339844 Z M 188.664062 184.660156 C 189.320312 184.660156 189.851562 185.191406 189.851562 185.847656 L 189.851562 189.007812 C 189.851562 189.664062 189.320312 190.195312 188.664062 190.195312 C 188.011719 190.195312 187.480469 189.664062 187.480469 189.007812 L 187.480469 185.847656 C 187.480469 185.191406 188.011719 184.660156 188.664062 184.660156 Z M 188.664062 190.984375 C 189.320312 190.984375 189.851562 191.515625 189.851562 192.167969 L 189.851562 195.332031 C 189.851562 195.984375 189.320312 196.515625 188.664062 196.515625 C 188.011719 196.515625 187.480469 195.984375 187.480469 195.332031 L 187.480469 192.167969 C 187.480469 191.515625 188.011719 190.984375 188.664062 190.984375 Z M 188.664062 197.308594 C 189.320312 197.308594 189.851562 197.835938 189.851562 198.492188 L 189.851562 201.652344 C 189.851562 202.308594 189.320312 202.839844 188.664062 202.839844 C 188.011719 202.839844 187.480469 202.308594 187.480469 201.652344 L 187.480469 198.492188 C 187.480469 197.835938 188.011719 197.308594 188.664062 197.308594 Z M 188.539062 203.625 C 188.585938 203.625 188.636719 203.625 188.683594 203.632812 C 189.332031 203.714844 189.796875 204.304688 189.714844 204.953125 C 189.578125 206.074219 189.332031 207.183594 188.984375 208.253906 C 188.785156 208.878906 188.117188 209.21875 187.492188 209.019531 C 186.871094 208.816406 186.527344 208.148438 186.730469 207.523438 C 187.03125 206.597656 187.242188 205.636719 187.363281 204.664062 C 187.4375 204.0625 187.949219 203.625 188.539062 203.625 Z M 186.605469 209.601562 C 186.796875 209.601562 186.996094 209.648438 187.175781 209.75 C 187.75 210.066406 187.957031 210.785156 187.640625 211.359375 C 187.097656 212.34375 186.457031 213.285156 185.738281 214.152344 C 185.320312 214.65625 184.570312 214.722656 184.066406 214.304688 C 183.5625 213.886719 183.496094 213.140625 183.914062 212.636719 C 184.539062 211.882812 185.09375 211.070312 185.566406 210.214844 C 185.78125 209.824219 186.1875 209.601562 186.605469 209.601562 Z M 182.589844 214.4375 C 182.929688 214.4375 183.269531 214.582031 183.503906 214.867188 C 183.917969 215.375 183.847656 216.121094 183.34375 216.535156 C 182.472656 217.253906 181.53125 217.890625 180.542969 218.429688 C 179.96875 218.742188 179.246094 218.53125 178.933594 217.957031 C 178.621094 217.382812 178.832031 216.664062 179.40625 216.347656 C 180.261719 215.882812 181.078125 215.328125 181.835938 214.707031 C 182.054688 214.523438 182.324219 214.4375 182.589844 214.4375 Z M 177.074219 217.445312 C 177.574219 217.445312 178.042969 217.765625 178.203125 218.269531 C 178.402344 218.894531 178.058594 219.5625 177.433594 219.761719 C 176.359375 220.101562 175.25 220.34375 174.128906 220.476562 C 173.480469 220.554688 172.890625 220.089844 172.8125 219.4375 C 172.734375 218.789062 173.199219 218.199219 173.847656 218.121094 C 174.820312 218.007812 175.785156 217.796875 176.710938 217.5 C 176.832031 217.464844 176.953125 217.445312 177.074219 217.445312 Z M 81.355469 218.230469 L 82.3125 218.230469 C 82.96875 218.230469 83.5 218.761719 83.5 219.417969 C 83.5 220.070312 82.96875 220.601562 82.3125 220.601562 L 81.355469 220.601562 C 80.703125 220.601562 80.171875 220.070312 80.171875 219.417969 C 80.171875 218.761719 80.703125 218.230469 81.355469 218.230469 Z M 85.472656 218.230469 L 88.636719 218.230469 C 89.289062 218.230469 89.820312 218.761719 89.820312 219.417969 C 89.820312 220.070312 89.289062 220.601562 88.636719 220.601562 L 85.472656 220.601562 C 84.820312 220.601562 84.289062 220.070312 84.289062 219.417969 C 84.289062 218.761719 84.820312 218.230469 85.472656 218.230469 Z M 91.796875 218.230469 L 94.957031 218.230469 C 95.613281 218.230469 96.144531 218.761719 96.144531 219.417969 C 96.144531 220.070312 95.613281 220.601562 94.957031 220.601562 L 91.796875 220.601562 C 91.140625 220.601562 90.613281 220.070312 90.613281 219.417969 C 90.613281 218.761719 91.144531 218.230469 91.796875 218.230469 Z M 98.121094 218.230469 L 101.28125 218.230469 C 101.9375 218.230469 102.46875 218.761719 102.46875 219.417969 C 102.46875 220.070312 101.9375 220.601562 101.28125 220.601562 L 98.121094 220.601562 C 97.464844 220.601562 96.933594 220.070312 96.933594 219.417969 C 96.933594 218.761719 97.464844 218.230469 98.121094 218.230469 Z M 104.441406 218.230469 L 107.605469 218.230469 C 108.257812 218.230469 108.789062 218.761719 108.789062 219.417969 C 108.789062 220.070312 108.257812 220.601562 107.605469 220.601562 L 104.441406 220.601562 C 103.789062 220.601562 103.257812 220.070312 103.257812 219.417969 C 103.257812 218.761719 103.789062 218.230469 104.441406 218.230469 Z M 110.765625 218.230469 L 113.925781 218.230469 C 114.582031 218.230469 115.113281 218.761719 115.113281 219.417969 C 115.113281 220.070312 114.582031 220.601562 113.925781 220.601562 L 110.765625 220.601562 C 110.109375 220.601562 109.582031 220.070312 109.582031 219.417969 C 109.582031 218.761719 110.113281 218.230469 110.765625 218.230469 Z M 117.089844 218.230469 L 120.25 218.230469 C 120.90625 218.230469 121.4375 218.761719 121.4375 219.417969 C 121.4375 220.070312 120.90625 220.601562 120.25 220.601562 L 117.089844 220.601562 C 116.433594 220.601562 115.902344 220.070312 115.902344 219.417969 C 115.902344 218.761719 116.433594 218.230469 117.089844 218.230469 Z M 123.410156 218.230469 L 126.574219 218.230469 C 127.226562 218.230469 127.757812 218.761719 127.757812 219.417969 C 127.757812 220.070312 127.226562 220.601562 126.574219 220.601562 L 123.410156 220.601562 C 122.757812 220.601562 122.226562 220.070312 122.226562 219.417969 C 122.226562 218.761719 122.757812 218.230469 123.410156 218.230469 Z M 129.734375 218.230469 L 132.894531 218.230469 C 133.550781 218.230469 134.082031 218.761719 134.082031 219.417969 C 134.082031 220.070312 133.550781 220.601562 132.894531 220.601562 L 129.734375 220.601562 C 129.078125 220.601562 128.546875 220.070312 128.546875 219.417969 C 128.546875 218.761719 129.078125 218.230469 129.734375 218.230469 Z M 136.058594 218.230469 L 139.21875 218.230469 C 139.875 218.230469 140.402344 218.761719 140.402344 219.417969 C 140.402344 220.070312 139.875 220.601562 139.21875 220.601562 L 136.058594 220.601562 C 135.402344 220.601562 134.871094 220.070312 134.871094 219.417969 C 134.871094 218.761719 135.402344 218.230469 136.058594 218.230469 Z M 142.378906 218.230469 L 145.542969 218.230469 C 146.195312 218.230469 146.726562 218.761719 146.726562 219.417969 C 146.726562 220.070312 146.195312 220.601562 145.542969 220.601562 L 142.378906 220.601562 C 141.726562 220.601562 141.195312 220.070312 141.195312 219.417969 C 141.195312 218.761719 141.726562 218.230469 142.378906 218.230469 Z M 148.703125 218.230469 L 151.863281 218.230469 C 152.519531 218.230469 153.050781 218.761719 153.050781 219.417969 C 153.050781 220.070312 152.519531 220.601562 151.863281 220.601562 L 148.703125 220.601562 C 148.046875 220.601562 147.515625 220.070312 147.515625 219.417969 C 147.515625 218.761719 148.046875 218.230469 148.703125 218.230469 Z M 155.027344 218.230469 L 158.1875 218.230469 C 158.84375 218.230469 159.371094 218.761719 159.371094 219.417969 C 159.371094 220.070312 158.84375 220.601562 158.1875 220.601562 L 155.027344 220.601562 C 154.371094 220.601562 153.839844 220.070312 153.839844 219.417969 C 153.839844 218.761719 154.371094 218.230469 155.027344 218.230469 Z M 161.347656 218.230469 L 164.511719 218.230469 C 165.164062 218.230469 165.695312 218.761719 165.695312 219.417969 C 165.695312 220.070312 165.164062 220.601562 164.511719 220.601562 L 161.347656 220.601562 C 160.695312 220.601562 160.164062 220.070312 160.164062 219.417969 C 160.164062 218.761719 160.695312 218.230469 161.347656 218.230469 Z M 167.671875 218.230469 L 170.832031 218.230469 C 171.488281 218.230469 172.019531 218.761719 172.019531 219.417969 C 172.019531 220.070312 171.488281 220.601562 170.832031 220.601562 L 167.671875 220.601562 C 167.015625 220.601562 166.484375 220.070312 166.484375 219.417969 C 166.484375 218.761719 167.015625 218.230469 167.671875 218.230469 Z M 167.671875 218.230469 " fill-opacity="1" fill-rule="nonzero"/></g><g clip-path="url(#49908d8819)"><path fill="#d90429" d="M 187.625 220.472656 C 187.007812 220.472656 186.507812 219.972656 186.507812 219.355469 L 186.507812 216.378906 C 186.507812 215.761719 187.007812 215.261719 187.625 215.261719 C 188.242188 215.261719 188.742188 215.761719 188.742188 216.378906 L 188.742188 219.355469 C 188.742188 219.972656 188.238281 220.472656 187.625 220.472656 Z M 187.625 214.515625 C 187.007812 214.515625 186.507812 214.015625 186.507812 213.398438 L 186.507812 210.421875 C 186.507812 209.804688 187.007812 209.304688 187.625 209.304688 C 188.242188 209.304688 188.742188 209.804688 188.742188 210.421875 L 188.742188 213.398438 C 188.742188 214.015625 188.238281 214.515625 187.625 214.515625 Z M 187.625 208.5625 C 187.007812 208.5625 186.507812 208.0625 186.507812 207.445312 L 186.507812 204.46875 C 186.507812 203.851562 187.007812 203.351562 187.625 203.351562 C 188.242188 203.351562 188.742188 203.851562 188.742188 204.46875 L 188.742188 207.445312 C 188.742188 208.0625 188.238281 208.5625 187.625 208.5625 Z M 187.625 202.605469 C 187.007812 202.605469 186.507812 202.105469 186.507812 201.492188 L 186.507812 198.511719 C 186.507812 197.894531 187.007812 197.394531 187.625 197.394531 C 188.242188 197.394531 188.742188 197.894531 188.742188 198.511719 L 188.742188 201.492188 C 188.742188 202.105469 188.238281 202.605469 187.625 202.605469 Z M 187.625 196.652344 C 187.007812 196.652344 186.507812 196.152344 186.507812 195.535156 L 186.507812 192.558594 C 186.507812 191.941406 187.007812 191.441406 187.625 191.441406 C 188.242188 191.441406 188.742188 191.941406 188.742188 192.558594 L 188.742188 195.535156 C 188.742188 196.152344 188.238281 196.652344 187.625 196.652344 Z M 187.625 190.699219 C 187.007812 190.699219 186.507812 190.199219 186.507812 189.582031 L 186.507812 186.601562 C 186.507812 185.988281 187.007812 185.488281 187.625 185.488281 C 188.242188 185.488281 188.742188 185.988281 188.742188 186.601562 L 188.742188 189.582031 C 188.742188 190.199219 188.238281 190.699219 187.625 190.699219 Z M 187.625 184.742188 C 187.007812 184.742188 186.507812 184.242188 186.507812 183.625 L 186.507812 180.648438 C 186.507812 180.03125 187.007812 179.53125 187.625 179.53125 C 188.242188 179.53125 188.742188 180.03125 188.742188 180.648438 L 188.742188 183.625 C 188.742188 184.242188 188.238281 184.742188 187.625 184.742188 Z M 187.742188 178.792969 C 187.699219 178.792969 187.652344 178.792969 187.605469 178.785156 C 186.992188 178.710938 186.558594 178.152344 186.632812 177.539062 C 186.765625 176.484375 186.996094 175.441406 187.320312 174.429688 C 187.511719 173.84375 188.140625 173.523438 188.726562 173.714844 C 189.316406 173.902344 189.636719 174.53125 189.445312 175.121094 C 189.164062 175.992188 188.960938 176.898438 188.851562 177.8125 C 188.78125 178.378906 188.300781 178.792969 187.742188 178.792969 Z M 189.5625 173.164062 C 189.382812 173.164062 189.195312 173.121094 189.027344 173.027344 C 188.484375 172.726562 188.289062 172.046875 188.585938 171.507812 C 189.097656 170.582031 189.703125 169.695312 190.378906 168.878906 C 190.773438 168.40625 191.480469 168.339844 191.953125 168.734375 C 192.429688 169.128906 192.492188 169.832031 192.097656 170.304688 C 191.511719 171.015625 190.988281 171.78125 190.542969 172.585938 C 190.339844 172.957031 189.957031 173.164062 189.5625 173.164062 Z M 193.347656 168.609375 C 193.023438 168.609375 192.707031 168.472656 192.484375 168.203125 C 192.09375 167.726562 192.160156 167.023438 192.636719 166.632812 C 193.457031 165.957031 194.34375 165.359375 195.273438 164.847656 C 195.816406 164.554688 196.492188 164.753906 196.789062 165.292969 C 197.085938 165.835938 196.886719 166.515625 196.34375 166.808594 C 195.539062 167.25 194.769531 167.769531 194.054688 168.355469 C 193.847656 168.527344 193.597656 168.609375 193.347656 168.609375 Z M 198.539062 165.777344 C 198.066406 165.777344 197.628906 165.472656 197.476562 165 C 197.289062 164.414062 197.613281 163.785156 198.203125 163.597656 C 199.210938 163.273438 200.257812 163.046875 201.3125 162.921875 C 201.925781 162.847656 202.480469 163.285156 202.554688 163.898438 C 202.628906 164.511719 202.191406 165.066406 201.578125 165.140625 C 200.664062 165.25 199.753906 165.445312 198.878906 165.722656 C 198.765625 165.761719 198.652344 165.777344 198.539062 165.777344 Z M 288.683594 165.035156 L 287.785156 165.035156 C 287.167969 165.035156 286.667969 164.535156 286.667969 163.917969 C 286.667969 163.304688 287.167969 162.804688 287.785156 162.804688 L 288.683594 162.804688 C 289.300781 162.804688 289.800781 163.304688 289.800781 163.917969 C 289.800781 164.535156 289.300781 165.035156 288.683594 165.035156 Z M 284.808594 165.035156 L 281.828125 165.035156 C 281.214844 165.035156 280.714844 164.535156 280.714844 163.917969 C 280.714844 163.304688 281.214844 162.804688 281.828125 162.804688 L 284.808594 162.804688 C 285.425781 162.804688 285.921875 163.304688 285.921875 163.917969 C 285.921875 164.535156 285.421875 165.035156 284.808594 165.035156 Z M 278.851562 165.035156 L 275.875 165.035156 C 275.257812 165.035156 274.757812 164.535156 274.757812 163.917969 C 274.757812 163.304688 275.257812 162.804688 275.875 162.804688 L 278.851562 162.804688 C 279.46875 162.804688 279.96875 163.304688 279.96875 163.917969 C 279.96875 164.535156 279.46875 165.035156 278.851562 165.035156 Z M 272.898438 165.035156 L 269.921875 165.035156 C 269.304688 165.035156 268.804688 164.535156 268.804688 163.917969 C 268.804688 163.304688 269.304688 162.804688 269.921875 162.804688 L 272.898438 162.804688 C 273.515625 162.804688 274.015625 163.304688 274.015625 163.917969 C 274.015625 164.535156 273.515625 165.035156 272.898438 165.035156 Z M 266.941406 165.035156 L 263.964844 165.035156 C 263.347656 165.035156 262.847656 164.535156 262.847656 163.917969 C 262.847656 163.304688 263.347656 162.804688 263.964844 162.804688 L 266.941406 162.804688 C 267.558594 162.804688 268.058594 163.304688 268.058594 163.917969 C 268.058594 164.535156 267.558594 165.035156 266.941406 165.035156 Z M 260.988281 165.035156 L 258.011719 165.035156 C 257.394531 165.035156 256.894531 164.535156 256.894531 163.917969 C 256.894531 163.304688 257.394531 162.804688 258.011719 162.804688 L 260.988281 162.804688 C 261.605469 162.804688 262.105469 163.304688 262.105469 163.917969 C 262.105469 164.535156 261.605469 165.035156 260.988281 165.035156 Z M 255.035156 165.035156 L 252.054688 165.035156 C 251.4375 165.035156 250.9375 164.535156 250.9375 163.917969 C 250.9375 163.304688 251.4375 162.804688 252.054688 162.804688 L 255.035156 162.804688 C 255.648438 162.804688 256.148438 163.304688 256.148438 163.917969 C 256.148438 164.535156 255.648438 165.035156 255.035156 165.035156 Z M 249.078125 165.035156 L 246.101562 165.035156 C 245.484375 165.035156 244.984375 164.535156 244.984375 163.917969 C 244.984375 163.304688 245.484375 162.804688 246.101562 162.804688 L 249.078125 162.804688 C 249.695312 162.804688 250.195312 163.304688 250.195312 163.917969 C 250.195312 164.535156 249.695312 165.035156 249.078125 165.035156 Z M 243.125 165.035156 L 240.144531 165.035156 C 239.53125 165.035156 239.03125 164.535156 239.03125 163.917969 C 239.03125 163.304688 239.53125 162.804688 240.144531 162.804688 L 243.125 162.804688 C 243.742188 162.804688 244.242188 163.304688 244.242188 163.917969 C 244.242188 164.535156 243.738281 165.035156 243.125 165.035156 Z M 237.167969 165.035156 L 234.191406 165.035156 C 233.574219 165.035156 233.074219 164.535156 233.074219 163.917969 C 233.074219 163.304688 233.574219 162.804688 234.191406 162.804688 L 237.167969 162.804688 C 237.785156 162.804688 238.285156 163.304688 238.285156 163.917969 C 238.285156 164.535156 237.785156 165.035156 237.167969 165.035156 Z M 231.214844 165.035156 L 228.238281 165.035156 C 227.621094 165.035156 227.121094 164.535156 227.121094 163.917969 C 227.121094 163.304688 227.621094 162.804688 228.238281 162.804688 L 231.214844 162.804688 C 231.832031 162.804688 232.332031 163.304688 232.332031 163.917969 C 232.332031 164.535156 231.832031 165.035156 231.214844 165.035156 Z M 225.257812 165.035156 L 222.28125 165.035156 C 221.664062 165.035156 221.164062 164.535156 221.164062 163.917969 C 221.164062 163.304688 221.664062 162.804688 222.28125 162.804688 L 225.257812 162.804688 C 225.875 162.804688 226.375 163.304688 226.375 163.917969 C 226.375 164.535156 225.875 165.035156 225.257812 165.035156 Z M 219.304688 165.035156 L 216.328125 165.035156 C 215.710938 165.035156 215.210938 164.535156 215.210938 163.917969 C 215.210938 163.304688 215.710938 162.804688 216.328125 162.804688 L 219.304688 162.804688 C 219.921875 162.804688 220.421875 163.304688 220.421875 163.917969 C 220.421875 164.535156 219.921875 165.035156 219.304688 165.035156 Z M 213.351562 165.035156 L 210.371094 165.035156 C 209.753906 165.035156 209.257812 164.535156 209.257812 163.917969 C 209.257812 163.304688 209.753906 162.804688 210.371094 162.804688 L 213.351562 162.804688 C 213.964844 162.804688 214.464844 163.304688 214.464844 163.917969 C 214.464844 164.535156 213.964844 165.035156 213.351562 165.035156 Z M 207.394531 165.035156 L 204.417969 165.035156 C 203.800781 165.035156 203.300781 164.535156 203.300781 163.917969 C 203.300781 163.304688 203.800781 162.804688 204.417969 162.804688 L 207.394531 162.804688 C 208.011719 162.804688 208.511719 163.304688 208.511719 163.917969 C 208.511719 164.535156 208.011719 165.035156 207.394531 165.035156 Z M 207.394531 165.035156 " fill-opacity="1" fill-rule="nonzero"/></g><g clip-path="url(#c5280c03c8)"><path fill="#d90429" d="M 296.863281 163.613281 L 300.058594 160.417969 C 300.4375 160.039062 300.4375 159.421875 300.058594 159.042969 C 299.679688 158.664062 299.066406 158.664062 298.6875 159.042969 L 295.492188 162.238281 L 292.296875 159.042969 C 291.917969 158.664062 291.304688 158.664062 290.925781 159.042969 C 290.546875 159.421875 290.546875 160.039062 290.925781 160.417969 L 294.121094 163.613281 L 290.917969 166.816406 C 290.539062 167.195312 290.539062 167.808594 290.917969 168.1875 C 291.105469 168.375 291.355469 168.46875 291.605469 168.46875 C 291.851562 168.46875 292.101562 168.375 292.289062 168.1875 L 295.492188 164.984375 L 298.6875 168.179688 C 298.878906 168.367188 299.125 168.460938 299.375 168.460938 C 299.621094 168.460938 299.871094 168.367188 300.058594 168.179688 C 300.4375 167.800781 300.4375 167.1875 300.058594 166.808594 Z M 296.863281 163.613281 " fill-opacity="1" fill-rule="nonzero"/></g><g fill="#d90429" fill-opacity="1"><g transform="translate(37.586157, 207.710741)"><g><path d="M 25.09375 -6.234375 L 11.921875 -6.234375 L 9.8125 0 L 0.8125 0 L 13.578125 -35.3125 L 23.53125 -35.3125 L 36.3125 0 L 27.203125 0 Z M 22.890625 -12.875 L 18.515625 -25.796875 L 14.1875 -12.875 Z M 22.890625 -12.875 "/></g></g></g><g fill="#d90429" fill-opacity="1"><g transform="translate(74.646931, 207.710741)"><g><path d="M 29.578125 -14.484375 C 29.578125 -13.679688 29.523438 -12.84375 29.421875 -11.96875 L 9.953125 -11.96875 C 10.085938 -10.226562 10.648438 -8.894531 11.640625 -7.96875 C 12.628906 -7.050781 13.847656 -6.59375 15.296875 -6.59375 C 17.441406 -6.59375 18.929688 -7.5 19.765625 -9.3125 L 28.921875 -9.3125 C 28.453125 -7.457031 27.601562 -5.789062 26.375 -4.3125 C 25.15625 -2.84375 23.625 -1.6875 21.78125 -0.84375 C 19.9375 -0.0078125 17.875 0.40625 15.59375 0.40625 C 12.84375 0.40625 10.394531 -0.179688 8.25 -1.359375 C 6.101562 -2.535156 4.425781 -4.210938 3.21875 -6.390625 C 2.007812 -8.566406 1.40625 -11.113281 1.40625 -14.03125 C 1.40625 -16.945312 2 -19.492188 3.1875 -21.671875 C 4.382812 -23.859375 6.054688 -25.535156 8.203125 -26.703125 C 10.347656 -27.878906 12.8125 -28.46875 15.59375 -28.46875 C 18.3125 -28.46875 20.722656 -27.894531 22.828125 -26.75 C 24.941406 -25.613281 26.59375 -23.988281 27.78125 -21.875 C 28.976562 -19.757812 29.578125 -17.296875 29.578125 -14.484375 Z M 20.765625 -16.75 C 20.765625 -18.226562 20.257812 -19.398438 19.25 -20.265625 C 18.25 -21.140625 16.992188 -21.578125 15.484375 -21.578125 C 14.046875 -21.578125 12.832031 -21.15625 11.84375 -20.3125 C 10.851562 -19.476562 10.242188 -18.289062 10.015625 -16.75 Z M 20.765625 -16.75 "/></g></g></g><g fill="#d90429" fill-opacity="1"><g transform="translate(105.623106, 207.710741)"><g><path d="M 1.40625 -14.078125 C 1.40625 -16.960938 1.945312 -19.492188 3.03125 -21.671875 C 4.125 -23.859375 5.609375 -25.535156 7.484375 -26.703125 C 9.367188 -27.878906 11.46875 -28.46875 13.78125 -28.46875 C 15.625 -28.46875 17.304688 -28.082031 18.828125 -27.3125 C 20.359375 -26.539062 21.5625 -25.5 22.4375 -24.1875 L 22.4375 -37.21875 L 31.03125 -37.21875 L 31.03125 0 L 22.4375 0 L 22.4375 -4.03125 C 21.625 -2.6875 20.472656 -1.609375 18.984375 -0.796875 C 17.492188 0.00390625 15.757812 0.40625 13.78125 0.40625 C 11.46875 0.40625 9.367188 -0.1875 7.484375 -1.375 C 5.609375 -2.570312 4.125 -4.265625 3.03125 -6.453125 C 1.945312 -8.648438 1.40625 -11.191406 1.40625 -14.078125 Z M 22.4375 -14.03125 C 22.4375 -16.175781 21.835938 -17.867188 20.640625 -19.109375 C 19.453125 -20.347656 18.003906 -20.96875 16.296875 -20.96875 C 14.585938 -20.96875 13.132812 -20.351562 11.9375 -19.125 C 10.75 -17.90625 10.15625 -16.222656 10.15625 -14.078125 C 10.15625 -11.929688 10.75 -10.226562 11.9375 -8.96875 C 13.132812 -7.71875 14.585938 -7.09375 16.296875 -7.09375 C 18.003906 -7.09375 19.453125 -7.710938 20.640625 -8.953125 C 21.835938 -10.191406 22.4375 -11.882812 22.4375 -14.03125 Z M 22.4375 -14.03125 "/></g></g></g><g fill="#d90429" fill-opacity="1"><g transform="translate(139.767295, 207.710741)"><g><path d="M 29.578125 -14.484375 C 29.578125 -13.679688 29.523438 -12.84375 29.421875 -11.96875 L 9.953125 -11.96875 C 10.085938 -10.226562 10.648438 -8.894531 11.640625 -7.96875 C 12.628906 -7.050781 13.847656 -6.59375 15.296875 -6.59375 C 17.441406 -6.59375 18.929688 -7.5 19.765625 -9.3125 L 28.921875 -9.3125 C 28.453125 -7.457031 27.601562 -5.789062 26.375 -4.3125 C 25.15625 -2.84375 23.625 -1.6875 21.78125 -0.84375 C 19.9375 -0.0078125 17.875 0.40625 15.59375 0.40625 C 12.84375 0.40625 10.394531 -0.179688 8.25 -1.359375 C 6.101562 -2.535156 4.425781 -4.210938 3.21875 -6.390625 C 2.007812 -8.566406 1.40625 -11.113281 1.40625 -14.03125 C 1.40625 -16.945312 2 -19.492188 3.1875 -21.671875 C 4.382812 -23.859375 6.054688 -25.535156 8.203125 -26.703125 C 10.347656 -27.878906 12.8125 -28.46875 15.59375 -28.46875 C 18.3125 -28.46875 20.722656 -27.894531 22.828125 -26.75 C 24.941406 -25.613281 26.59375 -23.988281 27.78125 -21.875 C 28.976562 -19.757812 29.578125 -17.296875 29.578125 -14.484375 Z M 20.765625 -16.75 C 20.765625 -18.226562 20.257812 -19.398438 19.25 -20.265625 C 18.25 -21.140625 16.992188 -21.578125 15.484375 -21.578125 C 14.046875 -21.578125 12.832031 -21.15625 11.84375 -20.3125 C 10.851562 -19.476562 10.242188 -18.289062 10.015625 -16.75 Z M 20.765625 -16.75 "/></g></g></g><g fill="#d90429" fill-opacity="1"><g transform="translate(170.74612, 207.710741)"><g/></g></g><g fill="#d90429" fill-opacity="1"><g transform="translate(181.406745, 207.710741)"><g/></g></g><g fill="#d90429" fill-opacity="1"><g transform="translate(192.06737, 207.710741)"><g/></g></g><g fill="#d90429" fill-opacity="1"><g transform="translate(209.249991, 209.780552)"><g><path d="M 15.890625 0.359375 C 13.304688 0.359375 10.992188 -0.0546875 8.953125 -0.890625 C 6.910156 -1.734375 5.273438 -2.976562 4.046875 -4.625 C 2.828125 -6.269531 2.179688 -8.25 2.109375 -10.5625 L 11.265625 -10.5625 C 11.398438 -9.25 11.851562 -8.25 12.625 -7.5625 C 13.394531 -6.875 14.398438 -6.53125 15.640625 -6.53125 C 16.910156 -6.53125 17.914062 -6.820312 18.65625 -7.40625 C 19.394531 -8 19.765625 -8.816406 19.765625 -9.859375 C 19.765625 -10.734375 19.46875 -11.453125 18.875 -12.015625 C 18.289062 -12.585938 17.570312 -13.054688 16.71875 -13.421875 C 15.863281 -13.796875 14.648438 -14.21875 13.078125 -14.6875 C 10.796875 -15.394531 8.929688 -16.097656 7.484375 -16.796875 C 6.046875 -17.503906 4.804688 -18.546875 3.765625 -19.921875 C 2.734375 -21.296875 2.21875 -23.085938 2.21875 -25.296875 C 2.21875 -28.585938 3.40625 -31.160156 5.78125 -33.015625 C 8.164062 -34.878906 11.269531 -35.8125 15.09375 -35.8125 C 18.976562 -35.8125 22.109375 -34.878906 24.484375 -33.015625 C 26.867188 -31.160156 28.144531 -28.570312 28.3125 -25.25 L 19.015625 -25.25 C 18.941406 -26.382812 18.519531 -27.28125 17.75 -27.9375 C 16.976562 -28.59375 15.988281 -28.921875 14.78125 -28.921875 C 13.75 -28.921875 12.910156 -28.644531 12.265625 -28.09375 C 11.628906 -27.539062 11.3125 -26.742188 11.3125 -25.703125 C 11.3125 -24.554688 11.847656 -23.664062 12.921875 -23.03125 C 13.992188 -22.394531 15.671875 -21.707031 17.953125 -20.96875 C 20.234375 -20.195312 22.085938 -19.457031 23.515625 -18.75 C 24.941406 -18.050781 26.171875 -17.03125 27.203125 -15.6875 C 28.242188 -14.351562 28.765625 -12.628906 28.765625 -10.515625 C 28.765625 -8.503906 28.253906 -6.675781 27.234375 -5.03125 C 26.210938 -3.382812 24.726562 -2.070312 22.78125 -1.09375 C 20.84375 -0.125 18.546875 0.359375 15.890625 0.359375 Z M 15.890625 0.359375 "/></g></g></g><g fill="#8d99ae" fill-opacity="1"><g transform="translate(240.17577, 209.780552)"><g><path d="M 1.40625 -14.03125 C 1.40625 -16.945312 2 -19.492188 3.1875 -21.671875 C 4.382812 -23.859375 6.046875 -25.535156 8.171875 -26.703125 C 10.296875 -27.878906 12.734375 -28.46875 15.484375 -28.46875 C 19.003906 -28.46875 21.945312 -27.546875 24.3125 -25.703125 C 26.675781 -23.859375 28.226562 -21.257812 28.96875 -17.90625 L 19.8125 -17.90625 C 19.039062 -20.050781 17.550781 -21.125 15.34375 -21.125 C 13.769531 -21.125 12.507812 -20.507812 11.5625 -19.28125 C 10.625 -18.0625 10.15625 -16.3125 10.15625 -14.03125 C 10.15625 -11.75 10.625 -9.992188 11.5625 -8.765625 C 12.507812 -7.546875 13.769531 -6.9375 15.34375 -6.9375 C 17.550781 -6.9375 19.039062 -8.007812 19.8125 -10.15625 L 28.96875 -10.15625 C 28.226562 -6.875 26.664062 -4.289062 24.28125 -2.40625 C 21.90625 -0.53125 18.972656 0.40625 15.484375 0.40625 C 12.734375 0.40625 10.296875 -0.179688 8.171875 -1.359375 C 6.046875 -2.535156 4.382812 -4.210938 3.1875 -6.390625 C 2 -8.566406 1.40625 -11.113281 1.40625 -14.03125 Z M 1.40625 -14.03125 "/></g></g></g><g fill="#8d99ae" fill-opacity="1"><g transform="translate(270.598295, 209.780552)"><g><path d="M 1.40625 -14.078125 C 1.40625 -16.960938 1.945312 -19.492188 3.03125 -21.671875 C 4.125 -23.859375 5.609375 -25.535156 7.484375 -26.703125 C 9.367188 -27.878906 11.46875 -28.46875 13.78125 -28.46875 C 15.757812 -28.46875 17.492188 -28.0625 18.984375 -27.25 C 20.472656 -26.445312 21.625 -25.394531 22.4375 -24.09375 L 22.4375 -28.0625 L 31.03125 -28.0625 L 31.03125 0 L 22.4375 0 L 22.4375 -3.96875 C 21.59375 -2.664062 20.425781 -1.609375 18.9375 -0.796875 C 17.445312 0.00390625 15.710938 0.40625 13.734375 0.40625 C 11.453125 0.40625 9.367188 -0.1875 7.484375 -1.375 C 5.609375 -2.570312 4.125 -4.265625 3.03125 -6.453125 C 1.945312 -8.648438 1.40625 -11.191406 1.40625 -14.078125 Z M 22.4375 -14.03125 C 22.4375 -16.175781 21.835938 -17.867188 20.640625 -19.109375 C 19.453125 -20.347656 18.003906 -20.96875 16.296875 -20.96875 C 14.585938 -20.96875 13.132812 -20.351562 11.9375 -19.125 C 10.75 -17.90625 10.15625 -16.222656 10.15625 -14.078125 C 10.15625 -11.929688 10.75 -10.226562 11.9375 -8.96875 C 13.132812 -7.71875 14.585938 -7.09375 16.296875 -7.09375 C 18.003906 -7.09375 19.453125 -7.710938 20.640625 -8.953125 C 21.835938 -10.191406 22.4375 -11.882812 22.4375 -14.03125 Z M 22.4375 -14.03125 "/></g></g></g><g fill="#8d99ae" fill-opacity="1"><g transform="translate(304.741913, 209.780552)"><g><path d="M 20.21875 -28.375 C 23.5 -28.375 26.117188 -27.304688 28.078125 -25.171875 C 30.046875 -23.046875 31.03125 -20.117188 31.03125 -16.390625 L 31.03125 0 L 22.484375 0 L 22.484375 -15.234375 C 22.484375 -17.117188 21.992188 -18.578125 21.015625 -19.609375 C 20.046875 -20.648438 18.738281 -21.171875 17.09375 -21.171875 C 15.457031 -21.171875 14.148438 -20.648438 13.171875 -19.609375 C 12.203125 -18.578125 11.71875 -17.117188 11.71875 -15.234375 L 11.71875 0 L 3.125 0 L 3.125 -28.0625 L 11.71875 -28.0625 L 11.71875 -24.34375 C 12.59375 -25.582031 13.765625 -26.5625 15.234375 -27.28125 C 16.710938 -28.007812 18.375 -28.375 20.21875 -28.375 Z M 20.21875 -28.375 "/></g></g></g><g clip-path="url(#d465e6a972)"><g clip-path="url(#449ac570d6)"><g clip-path="url(#51b1d25640)"><path fill="#8d99ae" d="M 186.3125 195.199219 C 179.855469 193.371094 176.089844 186.632812 177.917969 180.175781 C 179.746094 173.71875 186.484375 169.953125 192.941406 171.78125 C 199.398438 173.609375 203.164062 180.347656 201.335938 186.804688 C 199.507812 193.261719 192.769531 197.027344 186.3125 195.199219 Z M 192.398438 173.707031 C 191.753906 173.523438 191.101562 173.40625 190.433594 173.355469 C 189.769531 173.300781 189.105469 173.3125 188.441406 173.390625 C 187.777344 173.46875 187.128906 173.613281 186.496094 173.816406 C 185.859375 174.023438 185.25 174.289062 184.667969 174.613281 C 184.085938 174.941406 183.539062 175.320312 183.03125 175.753906 C 182.523438 176.1875 182.0625 176.664062 181.648438 177.1875 C 181.234375 177.710938 180.875 178.273438 180.570312 178.867188 C 180.269531 179.460938 180.027344 180.078125 179.84375 180.722656 C 179.664062 181.363281 179.542969 182.019531 179.492188 182.683594 C 179.4375 183.347656 179.453125 184.011719 179.527344 184.675781 C 179.605469 185.339844 179.75 185.988281 179.953125 186.625 C 180.160156 187.257812 180.425781 187.867188 180.75 188.449219 C 181.078125 189.035156 181.457031 189.578125 181.890625 190.085938 C 182.324219 190.59375 182.800781 191.054688 183.324219 191.46875 C 183.847656 191.882812 184.410156 192.242188 185.003906 192.546875 C 185.597656 192.847656 186.214844 193.09375 186.859375 193.273438 C 187.5 193.457031 188.15625 193.574219 188.820312 193.625 C 189.484375 193.679688 190.148438 193.667969 190.8125 193.589844 C 191.476562 193.511719 192.125 193.371094 192.761719 193.164062 C 193.394531 192.957031 194.003906 192.691406 194.585938 192.367188 C 195.171875 192.039062 195.714844 191.660156 196.222656 191.226562 C 196.730469 190.796875 197.191406 190.316406 197.605469 189.792969 C 198.019531 189.269531 198.378906 188.710938 198.683594 188.113281 C 198.988281 187.519531 199.230469 186.902344 199.410156 186.257812 C 199.59375 185.617188 199.707031 184.964844 199.761719 184.296875 C 199.8125 183.632812 199.800781 182.96875 199.722656 182.304688 C 199.644531 181.644531 199.5 180.996094 199.296875 180.359375 C 199.089844 179.726562 198.824219 179.117188 198.5 178.535156 C 198.171875 177.949219 197.792969 177.40625 197.359375 176.898438 C 196.929688 176.390625 196.449219 175.929688 195.925781 175.515625 C 195.402344 175.101562 194.84375 174.742188 194.25 174.4375 C 193.65625 174.132812 193.039062 173.890625 192.394531 173.707031 Z M 192.398438 173.707031 " fill-opacity="1" fill-rule="nonzero"/></g></g></g><g clip-path="url(#f22254de38)"><g clip-path="url(#c141d2dceb)"><g clip-path="url(#86fbef1c77)"><path fill="#8d99ae" d="M 194.410156 198.859375 C 194.191406 198.796875 194.011719 198.679688 193.863281 198.507812 C 193.71875 198.335938 193.628906 198.136719 193.601562 197.914062 C 193.578125 197.6875 193.613281 197.476562 193.714844 197.273438 C 193.820312 197.070312 193.96875 196.914062 194.164062 196.804688 L 197.996094 194.644531 C 198.128906 194.558594 198.269531 194.503906 198.421875 194.480469 C 198.574219 194.453125 198.722656 194.460938 198.875 194.496094 C 199.023438 194.535156 199.160156 194.597656 199.28125 194.691406 C 199.40625 194.785156 199.503906 194.898438 199.582031 195.03125 C 199.65625 195.167969 199.703125 195.3125 199.71875 195.464844 C 199.738281 195.617188 199.722656 195.769531 199.675781 195.914062 C 199.632812 196.0625 199.558594 196.195312 199.457031 196.3125 C 199.359375 196.429688 199.238281 196.523438 199.101562 196.589844 L 195.269531 198.75 C 194.996094 198.90625 194.710938 198.941406 194.410156 198.859375 Z M 194.410156 198.859375 " fill-opacity="1" fill-rule="nonzero"/></g></g></g><g clip-path="url(#868639836a)"><g clip-path="url(#2d87a270b2)"><g clip-path="url(#f7a8abd331)"><path fill="#8d99ae" d="M 204.488281 212.632812 C 203.96875 212.488281 203.582031 212.179688 203.324219 211.703125 L 197.6875 201.332031 C 197.566406 201.109375 197.492188 200.871094 197.464844 200.617188 C 197.4375 200.363281 197.460938 200.113281 197.535156 199.871094 C 197.605469 199.625 197.722656 199.402344 197.882812 199.207031 C 198.042969 199.007812 198.234375 198.847656 198.460938 198.726562 C 198.683594 198.605469 198.921875 198.53125 199.175781 198.503906 C 199.429688 198.476562 199.679688 198.5 199.921875 198.570312 C 200.167969 198.644531 200.386719 198.761719 200.585938 198.921875 C 200.785156 199.082031 200.945312 199.273438 201.066406 199.496094 L 206.699219 209.867188 C 206.886719 210.207031 206.960938 210.570312 206.925781 210.957031 C 206.890625 211.339844 206.753906 211.683594 206.511719 211.984375 C 206.273438 212.289062 205.96875 212.496094 205.597656 212.617188 C 205.230469 212.734375 204.859375 212.738281 204.488281 212.632812 Z M 204.488281 212.632812 " fill-opacity="1" fill-rule="nonzero"/></g></g></g><g clip-path="url(#2e91f2f650)"><path fill="#8d99ae" d="M 203.570312 180.335938 C 203.570312 181.34375 203.472656 182.335938 203.273438 183.324219 C 203.078125 184.308594 202.789062 185.265625 202.402344 186.195312 C 202.019531 187.125 201.546875 188.007812 200.988281 188.84375 C 200.429688 189.679688 199.796875 190.453125 199.085938 191.164062 C 198.375 191.875 197.601562 192.507812 196.765625 193.066406 C 195.929688 193.625 195.046875 194.097656 194.117188 194.480469 C 193.1875 194.867188 192.230469 195.15625 191.246094 195.351562 C 190.257812 195.550781 189.265625 195.648438 188.257812 195.648438 C 187.253906 195.648438 186.257812 195.550781 185.273438 195.351562 C 184.285156 195.15625 183.328125 194.867188 182.398438 194.480469 C 181.472656 194.097656 180.589844 193.625 179.753906 193.066406 C 178.917969 192.507812 178.144531 191.875 177.433594 191.164062 C 176.722656 190.453125 176.085938 189.679688 175.527344 188.84375 C 174.96875 188.007812 174.5 187.125 174.113281 186.195312 C 173.730469 185.265625 173.4375 184.308594 173.242188 183.324219 C 173.046875 182.335938 172.949219 181.34375 172.949219 180.335938 C 172.949219 179.332031 173.046875 178.335938 173.242188 177.351562 C 173.4375 176.363281 173.730469 175.40625 174.113281 174.476562 C 174.5 173.550781 174.96875 172.667969 175.527344 171.832031 C 176.085938 170.996094 176.722656 170.222656 177.433594 169.511719 C 178.144531 168.800781 178.917969 168.164062 179.753906 167.605469 C 180.589844 167.046875 181.472656 166.578125 182.398438 166.191406 C 183.328125 165.808594 184.285156 165.515625 185.273438 165.320312 C 186.257812 165.125 187.253906 165.027344 188.257812 165.027344 C 189.265625 165.027344 190.257812 165.125 191.246094 165.320312 C 192.230469 165.515625 193.1875 165.808594 194.117188 166.191406 C 195.046875 166.578125 195.929688 167.046875 196.765625 167.605469 C 197.601562 168.164062 198.375 168.800781 199.085938 169.511719 C 199.796875 170.222656 200.429688 170.996094 200.988281 171.832031 C 201.546875 172.667969 202.019531 173.550781 202.402344 174.476562 C 202.789062 175.40625 203.078125 176.363281 203.273438 177.351562 C 203.472656 178.335938 203.570312 179.332031 203.570312 180.335938 Z M 203.570312 180.335938 " fill-opacity="1" fill-rule="nonzero"/></g><g clip-path="url(#145772a5ea)"><g clip-path="url(#db5e459bf1)"><path fill="#edf2f4" d="M 174.917969 166.996094 L 201.601562 166.996094 L 201.601562 193.679688 L 174.917969 193.679688 Z M 174.917969 166.996094 " fill-opacity="1" fill-rule="nonzero"/></g></g><path fill="#2b2d42" d="M 189.574219 182.898438 L 189.574219 186.839844 C 189.574219 187.550781 188.984375 188.140625 188.273438 188.140625 C 187.5625 188.140625 186.96875 187.550781 186.96875 186.839844 L 186.96875 182.839844 L 187.027344 182.839844 C 187.414062 183.074219 187.828125 183.195312 188.273438 183.195312 C 188.6875 183.195312 189.070312 183.074219 189.425781 182.867188 L 189.574219 182.867188 Z M 189.574219 182.898438 " fill-opacity="1" fill-rule="nonzero"/><g clip-path="url(#73f16e2c9b)"><path fill="#2b2d42" d="M 191.917969 171.730469 C 191.828125 171.878906 191.648438 171.90625 191.5 171.820312 C 191.414062 171.757812 191.351562 171.757812 191.265625 171.789062 C 190.613281 172.027344 189.753906 173.804688 189.339844 174.929688 C 189.488281 175.253906 189.574219 175.609375 189.574219 175.847656 C 189.574219 176.589844 188.984375 177.179688 188.273438 177.179688 C 187.5625 177.179688 186.96875 176.589844 186.96875 175.847656 C 186.96875 175.609375 187.058594 175.253906 187.207031 174.957031 C 186.761719 173.804688 185.902344 171.996094 185.25 171.789062 C 185.160156 171.757812 185.074219 171.757812 185.011719 171.820312 C 184.867188 171.90625 184.6875 171.878906 184.597656 171.730469 C 184.511719 171.582031 184.539062 171.402344 184.6875 171.316406 C 184.925781 171.167969 185.191406 171.136719 185.457031 171.226562 C 186.375 171.523438 187.234375 173.417969 187.589844 174.367188 C 187.796875 174.160156 188.003906 174.039062 188.273438 174.039062 C 188.539062 174.039062 188.746094 174.160156 188.953125 174.335938 C 189.339844 173.386719 190.167969 171.523438 191.085938 171.226562 C 191.351562 171.136719 191.621094 171.167969 191.855469 171.316406 C 191.976562 171.433594 192.003906 171.609375 191.917969 171.730469 Z M 191.917969 171.730469 " fill-opacity="1" fill-rule="nonzero"/></g><g clip-path="url(#d0384460c8)"><path fill="#2b2d42" d="M 185.488281 179.609375 C 185.488281 179.847656 185.515625 180.082031 185.546875 180.320312 C 184.09375 180.292969 183 180.527344 182.082031 180.734375 C 180.660156 181.03125 179.652344 181.238281 178.941406 179.964844 C 178.4375 179.105469 179.03125 177.742188 180.480469 177.328125 C 181.398438 176.945312 183.917969 177.003906 185.871094 177.742188 C 185.636719 178.277344 185.488281 178.929688 185.488281 179.609375 Z M 185.488281 179.609375 " fill-opacity="1" fill-rule="nonzero"/></g><path fill="#2b2d42" d="M 197.574219 179.964844 C 197.101562 180.824219 196.003906 181.179688 194.996094 180.914062 C 193.664062 180.46875 192.417969 180.292969 190.996094 180.320312 C 191.027344 180.082031 191.058594 179.847656 191.058594 179.609375 C 191.058594 178.929688 190.910156 178.277344 190.640625 177.714844 C 192.597656 176.972656 195.085938 176.914062 196.035156 177.300781 C 197.484375 177.742188 198.078125 179.078125 197.574219 179.964844 Z M 197.574219 179.964844 " fill-opacity="1" fill-rule="nonzero"/><g clip-path="url(#21e26c361b)"><path fill="#2b2d42" d="M 195.382812 184.941406 C 195.351562 185.089844 195.234375 185.207031 195.027344 185.179688 L 193.070312 184.765625 C 192.984375 184.734375 192.894531 184.675781 192.863281 184.585938 L 191.769531 182.097656 L 190.199219 180.972656 C 190.136719 181.148438 190.050781 181.328125 189.960938 181.476562 L 191.917969 184.675781 C 191.945312 184.734375 191.976562 184.792969 191.945312 184.851562 L 191.589844 188.320312 L 192.6875 188.910156 C 192.835938 189 192.894531 189.179688 192.804688 189.328125 C 192.714844 189.476562 192.539062 189.535156 192.417969 189.445312 L 191.144531 188.765625 C 191.027344 188.703125 190.96875 188.585938 190.996094 188.46875 L 191.414062 184.972656 L 189.636719 182.070312 C 189.28125 182.453125 188.835938 182.660156 188.332031 182.660156 C 187.769531 182.660156 187.292969 182.394531 186.9375 181.980469 L 185.101562 184.972656 L 185.488281 188.46875 C 185.488281 188.585938 185.429688 188.703125 185.339844 188.765625 L 184.09375 189.445312 C 183.945312 189.535156 183.769531 189.476562 183.679688 189.328125 C 183.589844 189.179688 183.652344 189 183.800781 188.910156 L 184.894531 188.320312 L 184.511719 184.914062 C 184.511719 184.851562 184.511719 184.792969 184.539062 184.734375 L 186.582031 181.417969 C 186.496094 181.269531 186.4375 181.089844 186.375 180.941406 L 184.6875 182.128906 L 183.621094 184.585938 C 183.589844 184.675781 183.503906 184.734375 183.414062 184.765625 L 181.429688 185.179688 C 181.222656 185.207031 181.101562 185.089844 181.074219 184.941406 C 181.042969 184.792969 181.132812 184.617188 181.308594 184.585938 L 183.148438 184.203125 L 184.125 181.800781 C 184.15625 181.742188 184.183594 181.714844 184.214844 181.683594 L 186.140625 180.320312 C 186.109375 180.082031 186.078125 179.847656 186.078125 179.609375 C 186.078125 178.632812 186.40625 177.773438 186.910156 177.238281 C 187.265625 177.566406 187.738281 177.773438 188.242188 177.773438 C 188.777344 177.773438 189.25 177.566406 189.574219 177.210938 C 190.078125 177.773438 190.433594 178.632812 190.433594 179.582031 C 190.433594 179.847656 190.40625 180.113281 190.347656 180.351562 L 192.152344 181.625 C 192.183594 181.652344 192.242188 181.714844 192.242188 181.742188 L 193.277344 184.140625 L 195.117188 184.527344 C 195.324219 184.617188 195.410156 184.765625 195.382812 184.941406 Z M 195.382812 184.941406 " fill-opacity="1" fill-rule="nonzero"/></g><g clip-path="url(#b7cbd7f0d6)"><g clip-path="url(#4936d1e9e4)"><path fill="#2b2d42" d="M 187.46875 171.105469 L 189.117188 171.105469 L 189.117188 174.492188 L 187.46875 174.492188 Z M 187.46875 171.105469 " fill-opacity="1" fill-rule="nonzero"/></g></g></svg>