<svg xmlns="http://www.w3.org/2000/svg" xmlns:xlink="http://www.w3.org/1999/xlink" width="500" zoomAndPan="magnify" viewBox="0 0 375 374.999991" height="500" preserveAspectRatio="xMidYMid meet" version="1.0"><defs><g/><clipPath id="e9dff8af67"><path d="M 0 6.683594 L 375 6.683594 L 375 368.316406 L 0 368.316406 Z M 0 6.683594 " clip-rule="nonzero"/></clipPath><clipPath id="e565816aad"><path d="M 75 6.683594 L 300 6.683594 C 341.421875 6.683594 375 40.261719 375 81.683594 L 375 293.316406 C 375 334.738281 341.421875 368.316406 300 368.316406 L 75 368.316406 C 33.578125 368.316406 0 334.738281 0 293.316406 L 0 81.683594 C 0 40.261719 33.578125 6.683594 75 6.683594 Z M 75 6.683594 " clip-rule="nonzero"/></clipPath><clipPath id="d5a4ee4ade"><path d="M 246.375 129.753906 L 314.625 129.753906 L 314.625 198 L 246.375 198 Z M 246.375 129.753906 " clip-rule="nonzero"/></clipPath><clipPath id="3373e510e2"><path d="M 272 207 L 289 207 L 289 240.003906 L 272 240.003906 Z M 272 207 " clip-rule="nonzero"/></clipPath><clipPath id="eaa6318464"><path d="M 250.894531 134.222656 L 310.089844 134.222656 L 310.089844 193.417969 L 250.894531 193.417969 Z M 250.894531 134.222656 " clip-rule="nonzero"/></clipPath><clipPath id="befe360c7f"><path d="M 280.492188 134.222656 C 264.148438 134.222656 250.894531 147.472656 250.894531 163.820312 C 250.894531 180.164062 264.148438 193.417969 280.492188 193.417969 C 296.839844 193.417969 310.089844 180.164062 310.089844 163.820312 C 310.089844 147.472656 296.839844 134.222656 280.492188 134.222656 Z M 280.492188 134.222656 " clip-rule="nonzero"/></clipPath><clipPath id="3036fda780"><path d="M 271 143.050781 L 290 143.050781 L 290 158 L 271 158 Z M 271 143.050781 " clip-rule="nonzero"/></clipPath><clipPath id="2bc1f052d4"><path d="M 286 157 L 303.898438 157 L 303.898438 167 L 286 167 Z M 286 157 " clip-rule="nonzero"/></clipPath><clipPath id="5b8007dcdd"><path d="M 263 157 L 298 157 L 298 186.550781 L 263 186.550781 Z M 263 157 " clip-rule="nonzero"/></clipPath><clipPath id="a303595012"><path d="M 278.765625 143.050781 L 282.667969 143.050781 L 282.667969 151.082031 L 278.765625 151.082031 Z M 278.765625 143.050781 " clip-rule="nonzero"/></clipPath><clipPath id="bf0c1fe71b"><path d="M 280.71875 143.050781 L 282.667969 151.070312 L 278.765625 151.070312 Z M 280.71875 143.050781 " clip-rule="nonzero"/></clipPath></defs><g clip-path="url(#e9dff8af67)"><g clip-path="url(#e565816aad)"><path fill="#2b2d42" d="M 0 6.683594 L 374.347656 6.683594 L 374.347656 368.316406 L 0 368.316406 Z M 0 6.683594 " fill-opacity="1" fill-rule="nonzero"/></g></g><g fill="#d90429" fill-opacity="1"><g transform="translate(64.058049, 180.057029)"><g><path d="M 30.9375 -7.6875 L 14.6875 -7.6875 L 12.09375 0 L 0.984375 0 L 16.734375 -43.53125 L 29.015625 -43.53125 L 44.765625 0 L 33.546875 0 Z M 28.203125 -15.875 L 22.8125 -31.8125 L 17.484375 -15.875 Z M 28.203125 -15.875 "/></g></g></g><g fill="#d90429" fill-opacity="1"><g transform="translate(113.404226, 180.057029)"><g><path d="M 36.453125 -17.859375 C 36.453125 -16.867188 36.390625 -15.832031 36.265625 -14.75 L 12.28125 -14.75 C 12.445312 -12.601562 13.140625 -10.960938 14.359375 -9.828125 C 15.578125 -8.691406 17.070312 -8.125 18.84375 -8.125 C 21.488281 -8.125 23.328125 -9.238281 24.359375 -11.46875 L 35.65625 -11.46875 C 35.070312 -9.195312 34.023438 -7.148438 32.515625 -5.328125 C 31.003906 -3.515625 29.113281 -2.085938 26.84375 -1.046875 C 24.570312 -0.015625 22.03125 0.5 19.21875 0.5 C 15.832031 0.5 12.816406 -0.222656 10.171875 -1.671875 C 7.523438 -3.117188 5.457031 -5.1875 3.96875 -7.875 C 2.476562 -10.5625 1.734375 -13.703125 1.734375 -17.296875 C 1.734375 -20.890625 2.46875 -24.03125 3.9375 -26.71875 C 5.40625 -29.40625 7.460938 -31.472656 10.109375 -32.921875 C 12.753906 -34.367188 15.789062 -35.09375 19.21875 -35.09375 C 22.5625 -35.09375 25.535156 -34.390625 28.140625 -32.984375 C 30.742188 -31.578125 32.78125 -29.570312 34.25 -26.96875 C 35.71875 -24.363281 36.453125 -21.328125 36.453125 -17.859375 Z M 25.609375 -20.640625 C 25.609375 -22.460938 24.988281 -23.910156 23.75 -24.984375 C 22.507812 -26.054688 20.957031 -26.59375 19.09375 -26.59375 C 17.320312 -26.59375 15.820312 -26.078125 14.59375 -25.046875 C 13.375 -24.015625 12.625 -22.546875 12.34375 -20.640625 Z M 25.609375 -20.640625 "/></g></g></g><g fill="#d90429" fill-opacity="1"><g transform="translate(155.249362, 180.057029)"><g><path d="M 1.734375 -17.359375 C 1.734375 -20.910156 2.40625 -24.03125 3.75 -26.71875 C 5.09375 -29.40625 6.921875 -31.472656 9.234375 -32.921875 C 11.546875 -34.367188 14.128906 -35.09375 16.984375 -35.09375 C 19.253906 -35.09375 21.332031 -34.613281 23.21875 -33.65625 C 25.101562 -32.707031 26.582031 -31.429688 27.65625 -29.828125 L 27.65625 -45.875 L 38.25 -45.875 L 38.25 0 L 27.65625 0 L 27.65625 -4.953125 C 26.65625 -3.304688 25.234375 -1.984375 23.390625 -0.984375 C 21.554688 0.00390625 19.421875 0.5 16.984375 0.5 C 14.128906 0.5 11.546875 -0.234375 9.234375 -1.703125 C 6.921875 -3.171875 5.09375 -5.257812 3.75 -7.96875 C 2.40625 -10.675781 1.734375 -13.804688 1.734375 -17.359375 Z M 27.65625 -17.296875 C 27.65625 -19.941406 26.921875 -22.03125 25.453125 -23.5625 C 23.984375 -25.09375 22.195312 -25.859375 20.09375 -25.859375 C 17.976562 -25.859375 16.1875 -25.101562 14.71875 -23.59375 C 13.257812 -22.082031 12.53125 -20.003906 12.53125 -17.359375 C 12.53125 -14.710938 13.257812 -12.613281 14.71875 -11.0625 C 16.1875 -9.507812 17.976562 -8.734375 20.09375 -8.734375 C 22.195312 -8.734375 23.984375 -9.5 25.453125 -11.03125 C 26.921875 -12.5625 27.65625 -14.648438 27.65625 -17.296875 Z M 27.65625 -17.296875 "/></g></g></g><g fill="#d90429" fill-opacity="1"><g transform="translate(201, 180.057029)"><g><path d="M 36.453125 -17.859375 C 36.453125 -16.867188 36.390625 -15.832031 36.265625 -14.75 L 12.28125 -14.75 C 12.445312 -12.601562 13.140625 -10.960938 14.359375 -9.828125 C 15.578125 -8.691406 17.070312 -8.125 18.84375 -8.125 C 21.488281 -8.125 23.328125 -9.238281 24.359375 -11.46875 L 35.65625 -11.46875 C 35.070312 -9.195312 34.023438 -7.148438 32.515625 -5.328125 C 31.003906 -3.515625 29.113281 -2.085938 26.84375 -1.046875 C 24.570312 -0.015625 22.03125 0.5 19.21875 0.5 C 15.832031 0.5 12.816406 -0.222656 10.171875 -1.671875 C 7.523438 -3.117188 5.457031 -5.1875 3.96875 -7.875 C 2.476562 -10.5625 1.734375 -13.703125 1.734375 -17.296875 C 1.734375 -20.890625 2.46875 -24.03125 3.9375 -26.71875 C 5.40625 -29.40625 7.460938 -31.472656 10.109375 -32.921875 C 12.753906 -34.367188 15.789062 -35.09375 19.21875 -35.09375 C 22.5625 -35.09375 25.535156 -34.390625 28.140625 -32.984375 C 30.742188 -31.578125 32.78125 -29.570312 34.25 -26.96875 C 35.71875 -24.363281 36.453125 -21.328125 36.453125 -17.859375 Z M 25.609375 -20.640625 C 25.609375 -22.460938 24.988281 -23.910156 23.75 -24.984375 C 22.507812 -26.054688 20.957031 -26.59375 19.09375 -26.59375 C 17.320312 -26.59375 15.820312 -26.078125 14.59375 -25.046875 C 13.375 -24.015625 12.625 -22.546875 12.34375 -20.640625 Z M 25.609375 -20.640625 "/></g></g></g><g fill="#d90429" fill-opacity="1"><g transform="translate(242.851006, 180.057029)"><g/></g></g><g fill="#d90429" fill-opacity="1"><g transform="translate(259.651332, 180.057029)"><g/></g></g><g fill="#d90429" fill-opacity="1"><g transform="translate(276.451658, 180.057029)"><g/></g></g><g clip-path="url(#d5a4ee4ade)"><path fill="#8d99ae" d="M 280.488281 129.757812 C 289.90625 129.757812 298.433594 133.578125 304.609375 139.75 C 310.78125 145.921875 314.601562 154.453125 314.601562 163.871094 C 314.601562 173.292969 310.78125 181.820312 304.609375 187.992188 C 298.433594 194.167969 289.90625 197.984375 280.488281 197.984375 C 271.066406 197.984375 262.539062 194.167969 256.367188 187.992188 C 250.191406 181.820312 246.375 173.292969 246.375 163.871094 C 246.375 154.453125 250.191406 145.921875 256.367188 139.75 C 262.539062 133.578125 271.066406 129.757812 280.488281 129.757812 Z M 300.6875 143.671875 C 295.515625 138.503906 288.375 135.304688 280.488281 135.304688 C 272.597656 135.304688 265.457031 138.503906 260.289062 143.671875 C 255.117188 148.84375 251.921875 155.984375 251.921875 163.871094 C 251.921875 171.761719 255.117188 178.902344 260.289062 184.070312 C 265.457031 189.242188 272.597656 192.4375 280.488281 192.4375 C 288.375 192.4375 295.515625 189.242188 300.6875 184.070312 C 305.855469 178.902344 309.054688 171.761719 309.054688 163.871094 C 309.054688 155.984375 305.855469 148.84375 300.6875 143.671875 Z M 300.6875 143.671875 " fill-opacity="1" fill-rule="nonzero"/></g><path fill="#8d99ae" d="M 276.769531 195.070312 L 284.203125 195.070312 L 284.203125 209.355469 L 276.769531 209.355469 Z M 276.769531 195.070312 " fill-opacity="1" fill-rule="evenodd"/><g clip-path="url(#3373e510e2)"><path fill="#8d99ae" d="M 280.488281 207.410156 C 284.648438 207.410156 288.054688 210.816406 288.054688 214.980469 L 288.054688 232.714844 C 288.054688 236.875 284.648438 240.28125 280.488281 240.28125 C 276.324219 240.28125 272.917969 236.875 272.917969 232.714844 L 272.917969 214.980469 C 272.917969 210.816406 276.324219 207.410156 280.488281 207.410156 Z M 280.488281 207.410156 " fill-opacity="1" fill-rule="evenodd"/></g><path fill="#8d99ae" d="M 256.429688 161.035156 C 257.078125 155.480469 259.605469 150.5 263.359375 146.746094 C 267.113281 142.992188 272.09375 140.464844 277.648438 139.816406 C 278.398438 139.730469 279.074219 139.941406 279.632812 140.441406 C 280.195312 140.941406 280.488281 141.589844 280.488281 142.34375 L 280.488281 142.808594 C 280.488281 144.101562 279.53125 145.179688 278.246094 145.332031 C 273.984375 145.839844 270.164062 147.785156 267.28125 150.667969 C 264.402344 153.550781 262.457031 157.371094 261.945312 161.632812 C 261.792969 162.917969 260.714844 163.871094 259.421875 163.871094 L 258.957031 163.871094 C 258.203125 163.871094 257.558594 163.582031 257.058594 163.019531 C 256.558594 162.457031 256.34375 161.78125 256.429688 161.035156 Z M 256.429688 161.035156 " fill-opacity="1" fill-rule="nonzero"/><g clip-path="url(#eaa6318464)"><g clip-path="url(#befe360c7f)"><path fill="#edf2f4" d="M 250.894531 134.222656 L 310.089844 134.222656 L 310.089844 193.417969 L 250.894531 193.417969 Z M 250.894531 134.222656 " fill-opacity="1" fill-rule="nonzero"/></g></g><g fill="#d90429" fill-opacity="1"><g transform="translate(63.144324, 236.042944)"><g><path d="M 21.484375 0.46875 C 17.992188 0.46875 14.863281 -0.09375 12.09375 -1.21875 C 9.332031 -2.351562 7.125 -4.03125 5.46875 -6.25 C 3.8125 -8.476562 2.941406 -11.15625 2.859375 -14.28125 L 15.234375 -14.28125 C 15.410156 -12.507812 16.019531 -11.160156 17.0625 -10.234375 C 18.101562 -9.304688 19.460938 -8.84375 21.140625 -8.84375 C 22.867188 -8.84375 24.226562 -9.238281 25.21875 -10.03125 C 26.21875 -10.820312 26.71875 -11.921875 26.71875 -13.328125 C 26.71875 -14.503906 26.320312 -15.476562 25.53125 -16.25 C 24.738281 -17.019531 23.765625 -17.65625 22.609375 -18.15625 C 21.453125 -18.65625 19.8125 -19.222656 17.6875 -19.859375 C 14.601562 -20.804688 12.082031 -21.753906 10.125 -22.703125 C 8.175781 -23.660156 6.5 -25.066406 5.09375 -26.921875 C 3.6875 -28.785156 2.984375 -31.210938 2.984375 -34.203125 C 2.984375 -38.648438 4.59375 -42.128906 7.8125 -44.640625 C 11.03125 -47.160156 15.226562 -48.421875 20.40625 -48.421875 C 25.65625 -48.421875 29.890625 -47.160156 33.109375 -44.640625 C 36.328125 -42.128906 38.050781 -38.628906 38.28125 -34.140625 L 25.703125 -34.140625 C 25.609375 -35.679688 25.039062 -36.890625 24 -37.765625 C 22.957031 -38.648438 21.617188 -39.09375 19.984375 -39.09375 C 18.585938 -39.09375 17.457031 -38.71875 16.59375 -37.96875 C 15.726562 -37.226562 15.296875 -36.15625 15.296875 -34.75 C 15.296875 -33.207031 16.019531 -32.003906 17.46875 -31.140625 C 18.925781 -30.285156 21.195312 -29.359375 24.28125 -28.359375 C 27.363281 -27.316406 29.867188 -26.316406 31.796875 -25.359375 C 33.722656 -24.410156 35.382812 -23.03125 36.78125 -21.21875 C 38.1875 -19.40625 38.890625 -17.070312 38.890625 -14.21875 C 38.890625 -11.488281 38.195312 -9.015625 36.8125 -6.796875 C 35.4375 -4.578125 33.429688 -2.8125 30.796875 -1.5 C 28.171875 -0.1875 25.066406 0.46875 21.484375 0.46875 Z M 21.484375 0.46875 "/></g></g></g><g fill="#8d99ae" fill-opacity="1"><g transform="translate(108.976353, 236.042944)"><g><path d="M 1.90625 -18.96875 C 1.90625 -22.914062 2.707031 -26.363281 4.3125 -29.3125 C 5.925781 -32.257812 8.171875 -34.523438 11.046875 -36.109375 C 13.929688 -37.691406 17.226562 -38.484375 20.9375 -38.484375 C 25.695312 -38.484375 29.675781 -37.238281 32.875 -34.75 C 36.070312 -32.257812 38.171875 -28.742188 39.171875 -24.203125 L 26.796875 -24.203125 C 25.753906 -27.109375 23.734375 -28.5625 20.734375 -28.5625 C 18.609375 -28.5625 16.910156 -27.734375 15.640625 -26.078125 C 14.367188 -24.421875 13.734375 -22.050781 13.734375 -18.96875 C 13.734375 -15.882812 14.367188 -13.515625 15.640625 -11.859375 C 16.910156 -10.210938 18.609375 -9.390625 20.734375 -9.390625 C 23.734375 -9.390625 25.753906 -10.835938 26.796875 -13.734375 L 39.171875 -13.734375 C 38.171875 -9.296875 36.0625 -5.804688 32.84375 -3.265625 C 29.625 -0.722656 25.65625 0.546875 20.9375 0.546875 C 17.226562 0.546875 13.929688 -0.242188 11.046875 -1.828125 C 8.171875 -3.421875 5.925781 -5.691406 4.3125 -8.640625 C 2.707031 -11.585938 1.90625 -15.03125 1.90625 -18.96875 Z M 1.90625 -18.96875 "/></g></g></g><g fill="#8d99ae" fill-opacity="1"><g transform="translate(154.123635, 236.042944)"><g><path d="M 1.90625 -19.046875 C 1.90625 -22.941406 2.640625 -26.363281 4.109375 -29.3125 C 5.585938 -32.257812 7.59375 -34.523438 10.125 -36.109375 C 12.664062 -37.691406 15.5 -38.484375 18.625 -38.484375 C 21.300781 -38.484375 23.648438 -37.9375 25.671875 -36.84375 C 27.691406 -35.757812 29.242188 -34.335938 30.328125 -32.578125 L 30.328125 -37.9375 L 41.953125 -37.9375 L 41.953125 0 L 30.328125 0 L 30.328125 -5.375 C 29.191406 -3.601562 27.613281 -2.171875 25.59375 -1.078125 C 23.582031 0.00390625 21.238281 0.546875 18.5625 0.546875 C 15.476562 0.546875 12.664062 -0.253906 10.125 -1.859375 C 7.59375 -3.472656 5.585938 -5.765625 4.109375 -8.734375 C 2.640625 -11.703125 1.90625 -15.140625 1.90625 -19.046875 Z M 30.328125 -18.96875 C 30.328125 -21.875 29.519531 -24.164062 27.90625 -25.84375 C 26.300781 -27.519531 24.34375 -28.359375 22.03125 -28.359375 C 19.71875 -28.359375 17.753906 -27.53125 16.140625 -25.875 C 14.535156 -24.21875 13.734375 -21.941406 13.734375 -19.046875 C 13.734375 -16.140625 14.535156 -13.835938 16.140625 -12.140625 C 17.753906 -10.441406 19.71875 -9.59375 22.03125 -9.59375 C 24.34375 -9.59375 26.300781 -10.429688 27.90625 -12.109375 C 29.519531 -13.785156 30.328125 -16.070312 30.328125 -18.96875 Z M 30.328125 -18.96875 "/></g></g></g><g fill="#8d99ae" fill-opacity="1"><g transform="translate(204.302347, 236.042944)"><g><path d="M 27.34375 -38.359375 C 31.78125 -38.359375 35.320312 -36.914062 37.96875 -34.03125 C 40.625 -31.15625 41.953125 -27.203125 41.953125 -22.171875 L 41.953125 0 L 30.390625 0 L 30.390625 -20.609375 C 30.390625 -23.140625 29.734375 -25.109375 28.421875 -26.515625 C 27.109375 -27.921875 25.34375 -28.625 23.125 -28.625 C 20.894531 -28.625 19.125 -27.921875 17.8125 -26.515625 C 16.5 -25.109375 15.84375 -23.140625 15.84375 -20.609375 L 15.84375 0 L 4.21875 0 L 4.21875 -37.9375 L 15.84375 -37.9375 L 15.84375 -32.90625 C 17.019531 -34.582031 18.601562 -35.910156 20.59375 -36.890625 C 22.59375 -37.867188 24.84375 -38.359375 27.34375 -38.359375 Z M 27.34375 -38.359375 "/></g></g></g><path fill="#2b2d42" d="M 283.757812 170.960938 L 283.757812 180.28125 C 283.757812 181.964844 282.355469 183.367188 280.671875 183.367188 C 278.988281 183.367188 277.585938 181.964844 277.585938 180.28125 L 277.585938 170.820312 L 277.726562 170.820312 C 278.640625 171.378906 279.621094 171.660156 280.671875 171.660156 C 281.652344 171.660156 282.566406 171.378906 283.40625 170.890625 L 283.757812 170.890625 Z M 283.757812 170.960938 " fill-opacity="1" fill-rule="nonzero"/><g clip-path="url(#3036fda780)"><path fill="#2b2d42" d="M 289.292969 144.53125 C 289.085938 144.882812 288.664062 144.953125 288.3125 144.742188 C 288.101562 144.601562 287.960938 144.601562 287.753906 144.671875 C 286.210938 145.234375 284.175781 149.4375 283.195312 152.101562 C 283.546875 152.875 283.757812 153.714844 283.757812 154.277344 C 283.757812 156.027344 282.355469 157.429688 280.671875 157.429688 C 278.988281 157.429688 277.585938 156.027344 277.585938 154.277344 C 277.585938 153.714844 277.796875 152.875 278.148438 152.171875 C 277.097656 149.4375 275.0625 145.164062 273.523438 144.671875 C 273.3125 144.601562 273.101562 144.601562 272.960938 144.742188 C 272.609375 144.953125 272.191406 144.882812 271.980469 144.53125 C 271.769531 144.179688 271.839844 143.761719 272.191406 143.550781 C 272.75 143.199219 273.382812 143.128906 274.011719 143.339844 C 276.1875 144.042969 278.21875 148.527344 279.058594 150.769531 C 279.550781 150.28125 280.042969 150 280.671875 150 C 281.304688 150 281.792969 150.28125 282.285156 150.699219 C 283.195312 148.457031 285.160156 144.042969 287.332031 143.339844 C 287.960938 143.128906 288.59375 143.199219 289.15625 143.550781 C 289.433594 143.832031 289.503906 144.25 289.292969 144.53125 Z M 289.292969 144.53125 " fill-opacity="1" fill-rule="nonzero"/></g><path fill="#2b2d42" d="M 274.082031 163.179688 C 274.082031 163.738281 274.152344 164.300781 274.222656 164.859375 C 270.789062 164.789062 268.195312 165.351562 266.019531 165.84375 C 262.65625 166.542969 260.273438 167.035156 258.589844 164.019531 C 257.398438 161.988281 258.800781 158.761719 262.234375 157.78125 C 264.410156 156.871094 270.367188 157.007812 274.992188 158.761719 C 274.433594 160.023438 274.082031 161.566406 274.082031 163.179688 Z M 274.082031 163.179688 " fill-opacity="1" fill-rule="nonzero"/><g clip-path="url(#2bc1f052d4)"><path fill="#2b2d42" d="M 302.683594 164.019531 C 301.5625 166.050781 298.96875 166.894531 296.585938 166.261719 C 293.429688 165.210938 290.484375 164.789062 287.121094 164.859375 C 287.191406 164.300781 287.261719 163.738281 287.261719 163.179688 C 287.261719 161.566406 286.910156 160.023438 286.28125 158.691406 C 290.90625 156.941406 296.796875 156.800781 299.039062 157.710938 C 302.472656 158.761719 303.875 161.917969 302.683594 164.019531 Z M 302.683594 164.019531 " fill-opacity="1" fill-rule="nonzero"/></g><g clip-path="url(#5b8007dcdd)"><path fill="#2b2d42" d="M 297.496094 175.796875 C 297.425781 176.148438 297.144531 176.425781 296.65625 176.355469 L 292.027344 175.375 C 291.816406 175.304688 291.609375 175.164062 291.539062 174.957031 L 288.945312 169.066406 L 285.230469 166.402344 C 285.089844 166.824219 284.878906 167.246094 284.667969 167.59375 L 289.292969 175.164062 C 289.363281 175.304688 289.433594 175.445312 289.363281 175.585938 L 288.523438 183.789062 L 291.117188 185.191406 C 291.46875 185.398438 291.609375 185.820312 291.398438 186.171875 C 291.1875 186.523438 290.765625 186.664062 290.484375 186.453125 L 287.472656 184.839844 C 287.191406 184.699219 287.050781 184.417969 287.121094 184.136719 L 288.101562 175.867188 L 283.898438 168.996094 C 283.054688 169.90625 282.003906 170.398438 280.8125 170.398438 C 279.480469 170.398438 278.359375 169.769531 277.519531 168.785156 L 273.171875 175.867188 L 274.082031 184.136719 C 274.082031 184.417969 273.941406 184.699219 273.730469 184.839844 L 270.789062 186.453125 C 270.4375 186.664062 270.015625 186.523438 269.804688 186.171875 C 269.597656 185.820312 269.738281 185.398438 270.085938 185.191406 L 272.679688 183.789062 L 271.769531 175.726562 C 271.769531 175.585938 271.769531 175.445312 271.839844 175.304688 L 276.675781 167.453125 C 276.464844 167.105469 276.324219 166.683594 276.1875 166.332031 L 272.191406 169.136719 L 269.667969 174.957031 C 269.597656 175.164062 269.386719 175.304688 269.175781 175.375 L 264.480469 176.355469 C 263.988281 176.425781 263.707031 176.148438 263.636719 175.796875 C 263.566406 175.445312 263.777344 175.027344 264.199219 174.957031 L 268.542969 174.042969 L 270.859375 168.367188 C 270.929688 168.226562 271 168.15625 271.070312 168.085938 L 275.625 164.859375 C 275.554688 164.300781 275.484375 163.738281 275.484375 163.179688 C 275.484375 160.863281 276.253906 158.832031 277.449219 157.570312 C 278.289062 158.339844 279.410156 158.832031 280.601562 158.832031 C 281.863281 158.832031 282.984375 158.339844 283.757812 157.5 C 284.949219 158.832031 285.789062 160.863281 285.789062 163.109375 C 285.789062 163.738281 285.71875 164.371094 285.578125 164.929688 L 289.855469 167.945312 C 289.925781 168.015625 290.066406 168.15625 290.066406 168.226562 L 292.519531 173.902344 L 296.867188 174.816406 C 297.355469 175.027344 297.566406 175.375 297.496094 175.796875 Z M 297.496094 175.796875 " fill-opacity="1" fill-rule="nonzero"/></g><g clip-path="url(#a303595012)"><g clip-path="url(#bf0c1fe71b)"><path fill="#2b2d42" d="M 278.765625 143.050781 L 282.667969 143.050781 L 282.667969 151.066406 L 278.765625 151.066406 Z M 278.765625 143.050781 " fill-opacity="1" fill-rule="nonzero"/></g></g></svg>